#!OML:ASF H:\ManfredETheater\Project 1\Capture day 1\Session 1\subject.ASF
:FULLY-SPECIFIED
:DEGREES
290
root 0.161165 16.5284 -19.8378 -160.81 -1.91429 174.08
lowerback 10.4375 -0.728716 -3.17549
upperback -3.66385 -1.454 0.0634879
thorax -9.7244 -0.513443 2.13034
lowerneck -18.9546 -1.86354 -2.97106
upperneck 5.35146 -2.26446 2.89026
head 4.69804 -1.06056 1.1659
rclavicle 2.34566e-014 -2.78299e-015
rhumerus -40.4106 5.32644 -92.7709
rradius 64.0779
rwrist -5.41873
rhand -24.5235 0.822018
rfingers 7.12502
rthumb 1.97178 -29.1486
lclavicle 2.34566e-014 -2.78299e-015
lhumerus -43.5211 -10.7363 95.5677
lradius 58.4209
lwrist 1.15434
lhand -16.8396 -0.254292
lfingers 7.12502
lthumb 9.39011 29.5165
rfemur -36.3637 -11.2722 16.4406
rtibia 72.1481
rfoot -26.0085 -12.1562
rtoes -37.162
lfemur -19.1252 -1.92073 -28.5921
ltibia 45.4935
lfoot -37.7867 -1.2751
ltoes 2.36346
291
root 0.163196 16.4814 -19.9297 -160.662 -1.94051 173.821
lowerback 11.0652 -0.840921 -3.35786
upperback -3.51131 -1.65957 -0.0613881
thorax -9.91351 -0.600976 2.15078
lowerneck -19.1887 -2.08169 -2.88705
upperneck 4.94202 -2.16402 3.05713
head 4.60604 -0.818065 1.22861
rclavicle 3.8763e-014 9.93923e-015
rhumerus -40.5562 4.7056 -92.6279
rradius 64.2221
rwrist -5.86853
rhand -25.0469 1.05743
rfingers 7.12502
rthumb 1.46623 -28.9173
lclavicle 3.8763e-014 9.93923e-015
lhumerus -43.1181 -11.2963 95.6357
lradius 59.3614
lwrist 1.3519
lhand -17.194 -0.892093
lfingers 7.12502
lthumb 9.0481 28.8938
rfemur -38.3079 -11.6343 16.3153
rtibia 74.2438
rfoot -25.906 -11.8349
rtoes -37.0688
lfemur -19.207 -1.62388 -28.826
ltibia 46.1015
lfoot -37.8925 -1.63542
ltoes 1.8626
292
root 0.16665 16.4338 -20.0232 -160.519 -1.97382 173.601
lowerback 11.7093 -0.955539 -3.51
upperback -3.34567 -1.86669 -0.171037
thorax -10.097 -0.690914 2.17384
lowerneck -19.4388 -2.07212 -2.89378
upperneck 4.51034 -2.11512 3.24572
head 4.51006 -0.764078 1.29446
rclavicle -6.95746e-015 -1.59028e-015
rhumerus -40.6924 4.02812 -92.4381
rradius 64.2334
rwrist -6.40348
rhand -25.5698 1.14626
rfingers 7.12502
rthumb 0.961205 -28.8313
lclavicle -6.95746e-015 -1.59028e-015
lhumerus -42.6281 -11.8169 95.6779
lradius 60.2807
lwrist 1.48823
lhand -17.5551 -1.57175
lfingers 7.12502
lthumb 8.69973 28.229
rfemur -40.3324 -11.9581 16.2631
rtibia 76.2048
rfoot -25.7577 -11.6393
rtoes -36.9007
lfemur -19.3195 -1.34407 -29.0035
ltibia 46.7945
lfoot -37.9573 -1.99935
ltoes 1.23472
293
root 0.17167 16.386 -20.1186 -160.38 -2.00966 173.419
lowerback 12.3679 -1.06894 -3.63997
upperback -3.16768 -2.07089 -0.262954
thorax -10.2745 -0.780549 2.20599
lowerneck -19.7043 -2.06596 -2.90622
upperneck 4.06436 -2.06244 3.42788
head 4.41164 -0.707048 1.35961
rclavicle -1.39149e-015 -7.95139e-015
rhumerus -40.8297 3.30103 -92.1967
rradius 64.123
rwrist -7.02104
rhand -26.1056 1.12346
rfingers 7.12502
rthumb 0.443739 -28.8558
lclavicle -1.39149e-015 -7.95139e-015
lhumerus -42.0538 -12.2899 95.6969
lradius 61.1937
lwrist 1.56156
lhand -17.9203 -2.27403
lfingers 7.12502
lthumb 8.34727 27.541
rfemur -42.4365 -12.2378 16.284
rtibia 78.0177
rfoot -25.5651 -11.5698
rtoes -36.6897
lfemur -19.4639 -1.08343 -29.1253
ltibia 47.5686
lfoot -37.9754 -2.37022
ltoes 0.442754
294
root 0.178397 16.3378 -20.2165 -160.253 -2.04965 173.268
lowerback 13.0429 -1.17907 -3.75906
upperback -2.97674 -2.27099 -0.337244
thorax -10.446 -0.868706 2.25339
lowerneck -19.9727 -2.06417 -2.92205
upperneck 3.59967 -2.00754 3.59836
head 4.30741 -0.648143 1.42193
rclavicle -1.80894e-014 1.86858e-014
rhumerus -40.9807 2.52265 -91.895
rradius 63.8972
rwrist -7.67885
rhand -26.6353 1.013
rfingers 7.12502
rthumb -0.067866 -28.9667
lclavicle -1.80894e-014 1.86858e-014
lhumerus -41.4019 -12.7096 95.6984
lradius 62.1151
lwrist 1.58527
lhand -18.281 -2.97314
lfingers 7.12502
lthumb 7.99912 26.8555
rfemur -44.6024 -12.4735 16.3664
rtibia 79.67
rfoot -25.3559 -11.6006
rtoes -36.4624
lfemur -19.6231 -0.848256 -29.197
ltibia 48.412
lfoot -37.9414 -2.74993
ltoes -0.48824
295
root 0.186589 16.2897 -20.3177 -160.142 -2.08444 173.139
lowerback 13.7334 -1.28172 -3.87889
upperback -2.77463 -2.46373 -0.3972
thorax -10.6126 -0.953314 2.31842
lowerneck -20.2188 -2.06359 -2.92895
upperneck 3.1016 -1.94827 3.74277
head 4.1886 -0.587345 1.47518
rclavicle 1.70955e-014 1.35174e-014
rhumerus -41.1585 1.70421 -91.5317
rradius 63.5577
rwrist -8.36179
rhand -27.1656 0.853401
rfingers 7.12502
rthumb -0.580068 -29.1256
lclavicle 1.70955e-014 1.35174e-014
lhumerus -40.6836 -13.0732 95.6866
lradius 63.0638
lwrist 1.60017
lhand -18.6253 -3.67384
lfingers 7.12502
lthumb 7.66682 26.1672
rfemur -46.8179 -12.6596 16.491
rtibia 81.1513
rfoot -25.1422 -11.7041
rtoes -36.2187
lfemur -19.7841 -0.636448 -29.2316
ltibia 49.3072
lfoot -37.8459 -3.15751
ltoes -1.51649
296
root 0.196214 16.2413 -20.4227 -160.063 -2.11408 173.025
lowerback 14.4469 -1.37608 -4.00912
upperback -2.55576 -2.65037 -0.443571
thorax -10.7715 -1.03468 2.40619
lowerneck -20.4465 -2.06196 -2.92185
upperneck 2.5737 -1.88248 3.85536
head 4.0568 -0.523815 1.51686
rclavicle -7.7526e-015 1.27222e-014
rhumerus -41.3652 0.860964 -91.1044
rradius 63.1126
rwrist -9.05187
rhand -27.6809 0.625658
rfingers 7.12502
rthumb -1.07767 -29.3514
lclavicle -7.7526e-015 1.27222e-014
lhumerus -39.9023 -13.369 95.6626
lradius 64.0615
lwrist 1.6319
lhand -18.9459 -4.37182
lfingers 7.12502
lthumb 7.35739 25.4803
rfemur -49.0568 -12.795 16.6406
rtibia 82.4538
rfoot -24.9169 -11.835
rtoes -35.9392
lfemur -19.9183 -0.453354 -29.2347
ltibia 50.2303
lfoot -37.694 -3.61424
ltoes -2.57363
297
root 0.207143 16.1924 -20.5327 -160.022 -2.14031 172.918
lowerback 15.1852 -1.46234 -4.15518
upperback -2.32268 -2.83335 -0.479192
thorax -10.9259 -1.11383 2.51748
lowerneck -20.6505 -2.05149 -2.89514
upperneck 2.02644 -1.80265 3.93204
head 3.91422 -0.454497 1.54542
rclavicle 2.19657e-014 5.56597e-015
rhumerus -41.6145 -0.000468754 -90.6106
rradius 62.5594
rwrist -9.742
rhand -28.1465 0.378543
rfingers 7.12502
rthumb -1.52737 -29.5957
lclavicle 2.19657e-014 5.56597e-015
lhumerus -39.0702 -13.5897 95.6283
lradius 65.1275
lwrist 1.72122
lhand -19.2179 -5.05743
lfingers 7.12502
lthumb 7.09478 24.8037
rfemur -51.2945 -12.8838 16.7985
rtibia 83.5727
rfoot -24.6904 -11.9622
rtoes -35.6702
lfemur -19.9982 -0.301008 -29.2121
ltibia 51.1538
lfoot -37.485 -4.15267
ltoes -3.55039
298
root 0.219358 16.1425 -20.648 -160.03 -2.16381 172.809
lowerback 15.9506 -1.54144 -4.3277
upperback -2.07451 -3.01719 -0.505802
thorax -11.0748 -1.1926 2.65771
lowerneck -20.8135 -2.02786 -2.84465
upperneck 1.45512 -1.7055 3.97347
head 3.75687 -0.378125 1.56064
rclavicle 2.65378e-014 -6.75868e-015
rhumerus -41.9099 -0.856592 -90.056
rradius 61.899
rwrist -10.4329
rhand -28.5614 0.0905467
rfingers 7.12502
rthumb -1.92814 -29.8805
lclavicle 2.65378e-014 -6.75868e-015
lhumerus -38.2016 -13.722 95.584
lradius 66.2939
lwrist 1.89183
lhand -19.4389 -5.72831
lfingers 7.12502
lthumb 6.88145 24.1399
rfemur -53.5102 -12.9314 16.9488
rtibia 84.5075
rfoot -24.4656 -12.059
rtoes -35.4316
lfemur -19.9954 -0.180281 -29.1716
ltibia 52.0506
lfoot -37.2301 -4.75596
ltoes -4.4879
